{"title":"No Strings Attached 2011 TS XViD SAFCuk009 {DragonTrG}","uid":6183784,"size":1270920798,"categoryP":"video","categoryS":"movies","magnet":"?xt=urn:btih:fa670797bb1772b66d8f5ed221a8f33c20244261&amp;dn=No+Strings+Attached+2011+TS+XViD+SAFCuk009+%7BDragonTrG%7D&amp;tr=udp%3A%2F%2Ftracker.openbittorrent.com%3A80&amp;tr=udp%3A%2F%2Fopen.demonii.com%3A1337&amp;tr=udp%3A%2F%2Ftracker.coppersurfer.tk%3A6969&amp;tr=udp%3A%2F%2Fexodus.desync.com%3A6969","seeders":1,"leechers":0,"uploader":"SAFCukO09","files":3,"time":1298048314,"description":"ormat : AVI\nFormat/Info : Audio Video Interleave\nFile size : 1.18 GiB\nDuration : 1h 38mn\nOverall bit rate : 1 717 Kbps\nWriting library : VirtualDub build 32839/release\n\nVideo\nID : 0\nFormat : MPEG-4 Visual\nFormat profile : Advanced Simple@L5\nFormat settings, BVOP : Yes\nFormat settings, QPel : No\nFormat settings, GMC : No warppoints\nFormat settings, Matrix : Custom\nCodec ID : XVID\nCodec ID/Hint : XviD\nDuration : 1h 38mn\nBit rate : 1 579 Kbps\nWidth : 688 pixels\nHeight : 384 pixels\nDisplay aspect ratio : 16:9\nFrame rate : 25.000 fps\nColor space : YUV\nChroma subsampling : 4:2:0\nBit depth : 8 bits\nScan type : Progressive\nBits/(Pixel*Frame) : 0.239\nStream size : 1.09 GiB (92%)\nWriting library : XviD 1.2.1 (UTC 2008-12-04)\n\nAudio\nID : 1\nFormat : MPEG Audio\nFormat version : Version 1\nFormat profile : Layer 3\nCodec ID : 55\nCodec ID/Hint : MP3\nDuration : 1h 38mn\nBit rate mode : Constant\nBit rate : 128 Kbps\nChannel(s) : 2 channels\nSampling rate : 44.1 KHz\nStream size : 90.4 MiB (7%)\nAlignment : Split accross interleaves\nInterleave, duration : 40 ms (1.00 video frame)\nInterleave, preload duration : 500 ms\n\n\n\n &lt;a href=&quot;\nhttp://www.imdb.com/title/tt1411238/&quot; rel=&quot;nofollow&quot; target=&quot;_NEW&quot;&gt;\nhttp://www.imdb.com/title/tt1411238/&lt;/a&gt;\n\n\n\n\nDetails\nOfficial Sites:\nParamount [United States] | Add/edit official sites Ã‚Â»\nCountry:\nUSA\nLanguage:\nEnglish\nRelease Date:\n25 February 2011 (UK) See more Ã‚Â»\nAlso Known As:\nSexo Sem Compromisso See more Ã‚Â»\nFilming Locations:\n1260 Channel Dr, Santa Barbara, California, USA\n\nStoryline\n\nA guy and girl try to keep their relationship strictly physical, but it's not long before they learn that they want something more.\n\nUsers: 6.2/10 (4,121 votes) 42 reviews | Critics: 106 reviews Metascore: 51/100 (based on 35 reviews from Metacritic.com)\n\n\nDirector:\nIvan Reitman\nWriters:\nElizabeth Meriwether (screenplay), Michael Samonek (story),\nStars:\nNatalie Portman, Ashton Kutcher and Kevin Kline ","torrent":{"xt":"urn:btih:fa670797bb1772b66d8f5ed221a8f33c20244261","amp;dn":"No+Strings+Attached+2011+TS+XViD+SAFCuk009+%7BDragonTrG%7D","amp;tr":["udp%3A%2F%2Ftracker.openbittorrent.com%3A80","udp%3A%2F%2Fopen.demonii.com%3A1337","udp%3A%2F%2Ftracker.coppersurfer.tk%3A6969","udp%3A%2F%2Fexodus.desync.com%3A6969"],"infoHash":"fa670797bb1772b66d8f5ed221a8f33c20244261","infoHashBuffer":{"type":"Buffer","data":[250,103,7,151,187,23,114,182,109,143,94,210,33,168,243,60,32,36,66,97]},"announce":[],"urlList":[]}}